name processed_emg_signals
nRows=41
nColumns=7
 
endheader
time	RGLTMED	RRF	RADDLONG	RST	RTA	RGM
0.485	0.03364453960319	0.1948802646647914	0.6332348375581296	0.0420333731680547	0.2072161595626213	0.0717482845868047
0.486	0.0334856803850271	0.1947789374337464	0.6407441226950485	0.0425877787416859	0.2103546999993889	0.0721134700637531
0.487	0.0333304293433465	0.1946847755429635	0.6482593085905586	0.0431519722150189	0.2134683127815154	0.0724478615339843
0.488	0.0331787895678476	0.1945978183707299	0.6557714522354925	0.0437253369864737	0.2165557838731722	0.0727517412725957
0.489	0.0330307630495514	0.1945181017559889	0.6632715520731279	0.0443072310888458	0.2196159166455476	0.0730254307717548
0.49	0.0328863509195748	0.1944456579304224	0.670750561093345	0.0448969874273477	0.2226475317186418	0.0732692887862755
0.491	0.0327455536897246	0.1943805154386891	0.6781994000148066	0.0454939140519951	0.2256494668089763	0.0734837093878118
0.492	0.0326083714943678	0.1943226990474602	0.685608970536343	0.0460972944644303	0.2286205765847284	0.0736691200304475
0.493	0.0324748043331534	0.1942722296439837	0.6929701686377234	0.0467063879593437	0.2315597325294607	0.0738259796303641
0.494	0.0323448523139963	0.1942291241245065	0.70027389790897	0.047320430000681	0.2344658228153477	0.0739547766620207
0.495	0.0322185158957651	0.1941933952725472	0.70751108288655	0.0479386326328595	0.2373377521867121	0.0740560272732062
0.496	0.0320957961299578	0.1941650516267374	0.7146726823735865	0.0485601849272253	0.2401744418546414	0.0741302734211508
0.497	0.0319766949006717	0.1941440973378164	0.7217497027198869	0.0491842534639845	0.242974829403368	0.0741780810318771
0.498	0.0318612151619773	0.1941305320142841	0.7287332110361793	0.049809982849944	0.2457378687092853	0.0742000381847418
0.499	0.0317493611719068	0.1941243505559093	0.735614348315562	0.0504364962724741	0.2484625298736668	0.0741967533240518
0.5	0.0316411387220906	0.1941255429748035	0.7423843424342159	0.0510628960901688	0.2511477991705671	0.074168853499512
0.501	0.0315365553621319	0.1941340942033743	0.7490345210037942	0.0516882644608009	0.2537926790114493	0.0741169826371385
0.502	0.0314356206177617	0.1941499838897162	0.7555563240479776	0.0523116640071233	0.2563961879279528	0.0740417998422569
0.503	0.0313383462018032	0.1941731861807375	0.7619413164772799	0.052932138521062	0.2589573605738617	0.0739439777360535
0.504	0.0312447462170213	0.1942036694939694	0.7681812003374237	0.0535487137068834	0.2614752477469119	0.0738242008270625
0.505	0.0311548373500118	0.1942413962793183	0.7742678268097034	0.0541603979639672	0.2639489164307623	0.0736831639188246
0.506	0.0310686390552361	0.1942863227718053	0.7801932079445564	0.0547661832098246	0.2663774498573161	0.0735215705548383
0.507	0.0309861737284186	0.1943383987367574	0.7859495281118066	0.0553650457440835	0.2687599475895567	0.0733401315017207
0.508	0.0309074668684813	0.1943975672086544	0.7915291551531585	0.055955947154092	0.2710955256251273	0.0731395632714361
0.509	0.0308325472273091	0.1944637642250441	0.796924651224113	0.0565378352625888	0.2733833165209497	0.0729205866832974
0.51	0.0307614469466856	0.1945369185567487	0.8021287833132156	0.0571096451178289	0.2756224695390784	0.0726839254664956
0.511	0.0306942016818347	0.1946169514356278	0.8071345334278942	0.0576703000262476	0.2778121508137376	0.0724303049038178
0.512	0.0306308507110814	0.1947037762811508	0.8119351084375604	0.0582187126276688	0.2799515435390864	0.0721604505172442
0.513	0.0305714370312196	0.1947972984271519	0.8165239495652896	0.0587537860128945	0.2820398481767448	0.0718750867960329
0.514	0.0305160074382679	0.1948974148504715	0.8208947415206626	0.0592744148833658	0.2840762826816548	0.071574935967887
0.515	0.0304646125933031	0.1950040139032963	0.8250414212654741	0.0597794867526841	0.2860600827443101	0.0712607168137296
0.516	0.0304173070732018	0.1951169750514049	0.8289581864030579	0.0602678831896425	0.2879905020471785	0.0709331435265702
0.517	0.0303741494059742	0.1952361686199283	0.8326395031806956	0.0607384811026795	0.2898668125330766	0.0705929246148218
0.518	0.0303352020905475	0.1953614555489824	0.8360801140925992	0.0611901540655246	0.2916883046835112	0.0702407618504797
0.519	0.0303005316006447	0.1954926871611992	0.839275045070774	0.0616217736840404	0.293454287805225	0.0698773492625576
0.52	0.0302702083724425	0.1956297049438573	0.842219612250346	0.0620322110040764	0.2951640903234221	0.0695033721763118
0.521	0.0302443067756771	0.1957723403477889	0.844909428296799	0.062420337960241	0.2968170600803594	0.0691195062987726
0.522	0.0302229050677531	0.1959204146058051	0.8473404082833427	0.0627850288653389	0.2984125646381734	0.0687264168511499
0.523	0.0302060853304497	0.1960737385725185	0.8495087751079278	0.0631251619400881	0.2999499915850783	0.0683247577486199
0.524	0.0301939333887582	0.1962321125874469	0.8514110644423536	0.0634396208826299	0.3014287488443372	0.0679151708278321
0.525	0.030186538711425	0.1963953263632758	0.8530441292066295	0.0637272964771514	0.3028482649857724	0.0674982851224896
